<svg width="128" height="128" viewBox="0 0 128 128" fill="none" xmlns="http://www.w3.org/2000/svg">
<path d="M109.333 32H82.6667C81.1947 32 80 30.8 80 29.3333V2.66675C80 1.19475 78.8053 0 77.3333 0H24C19.5893 0 16 3.58925 16 8V120C16 124.411 19.5893 128 24 128H104C108.411 128 112 124.411 112 120V34.6668C112 33.1948 110.805 32 109.333 32ZM106.667 120C106.667 121.467 105.472 122.667 104 122.667H24C22.528 122.667 21.3333 121.467 21.3333 120V8C21.3333 6.53325 22.528 5.33325 24 5.33325H74.6667V29.3333C74.6667 33.744 78.256 37.3332 82.6667 37.3332H106.667V120V120Z" fill="#DF691A"/>
<path d="M111.216 32.7833L79.216 0.783342C78.176 -0.256658 76.4853 -0.256658 75.4453 0.783342C74.4053 1.82334 74.4053 3.51409 75.4453 4.55409L107.445 36.5541C107.968 37.0713 108.651 37.3328 109.333 37.3328C110.016 37.3328 110.699 37.0716 111.216 36.5541C112.256 35.5141 112.256 33.8233 111.216 32.7833Z" fill="#DF691A"/>
<circle cx="64" cy="69" r="32" fill="#DF691A"/>
<path d="M55.5451 48.2738C53.7099 48.2738 52.2733 48.5521 51.2353 49.1087C50.1974 49.6653 49.7386 50.5904 49.8589 51.8841L50.8066 61.1354C50.8517 61.5115 50.8743 61.88 50.8743 62.241C50.8743 63.7152 50.5133 64.8509 49.7912 65.6482C49.0842 66.4304 48.0162 66.9494 46.5871 67.2051C48.0463 67.4609 49.1218 67.9648 49.8138 68.7169C50.5208 69.454 50.8743 70.5672 50.8743 72.0564C50.8743 72.4325 50.8517 72.8386 50.8066 73.2749L49.8589 82.5262C49.8439 82.6164 49.8364 82.7443 49.8364 82.9097C49.8364 85.0609 51.7393 86.1364 55.5451 86.1364V89.1149C52.8223 89.1149 50.6035 88.6485 48.8887 87.7159C47.1888 86.7983 46.3389 85.2338 46.3389 83.0226C46.3389 82.6164 46.354 82.3005 46.384 82.0749L47.2866 73.5005C47.3167 73.2899 47.3317 72.9891 47.3317 72.5979C47.3317 71.7104 47.1287 70.9884 46.7225 70.4318C46.3164 69.8752 45.6093 69.454 44.6015 69.1682C43.6087 68.8674 42.2323 68.7169 40.4723 68.7169V65.6933C42.2323 65.6933 43.6087 65.5504 44.6015 65.2646C45.6093 64.9788 46.3164 64.5576 46.7225 64.001C47.1287 63.4444 47.3317 62.7299 47.3317 61.8574C47.3317 61.4663 47.3167 61.1655 47.2866 60.9549L46.384 52.3354C46.354 52.1097 46.3389 51.7938 46.3389 51.3877C46.3389 49.1764 47.1888 47.612 48.8887 46.6944C50.6035 45.7617 52.8223 45.2954 55.5451 45.2954V48.2738ZM72.4615 45.2954C75.1843 45.2954 77.3956 45.7617 79.0954 46.6944C80.8103 47.612 81.6677 49.1764 81.6677 51.3877C81.6677 51.7938 81.6527 52.1097 81.6226 52.3354L80.72 60.9549C80.6899 61.2858 80.6749 61.534 80.6749 61.6995C80.6749 63.0383 81.2014 64.0386 82.2544 64.7005C83.3074 65.3624 85.0674 65.6933 87.5344 65.6933V68.7169C85.0824 68.7169 83.3224 69.0554 82.2544 69.7323C81.2014 70.3942 80.6749 71.4021 80.6749 72.7559C80.6749 72.9214 80.6899 73.1696 80.72 73.5005L81.6226 82.0749C81.6527 82.3005 81.6677 82.6164 81.6677 83.0226C81.6677 85.2338 80.8103 86.7983 79.0954 87.7159C77.3956 88.6485 75.1843 89.1149 72.4615 89.1149V86.1364C76.478 86.1364 78.3733 84.933 78.1477 82.5262L77.2 73.2749C77.1549 72.8386 77.1323 72.4325 77.1323 72.0564C77.1323 70.5371 77.5084 69.4164 78.2605 68.6944C79.0127 67.9723 80.2311 67.4909 81.9159 67.2503C80.2762 66.9795 79.0653 66.4455 78.2831 65.6482C77.5159 64.8509 77.1323 63.7077 77.1323 62.2185C77.1323 61.8725 77.1549 61.5115 77.2 61.1354L78.1477 51.8841C78.1627 51.7938 78.1703 51.666 78.1703 51.5005C78.1703 50.3422 77.6513 49.5149 76.6133 49.0185C75.5904 48.5221 74.2065 48.2738 72.4615 48.2738V45.2954Z" fill="white"/>
</svg>
