<svg width="128" height="128" viewBox="0 0 128 128" fill="none" xmlns="http://www.w3.org/2000/svg">
<circle cx="64" cy="64" r="64" fill="#DF691A"/>
<path d="M47.0901 21.5477C43.4197 21.5477 40.5466 22.1043 38.4707 23.2174C36.3948 24.3306 35.4772 26.1809 35.7178 28.7682L37.6132 47.2708C37.7035 48.0229 37.7486 48.76 37.7486 49.4821C37.7486 52.4304 37.0266 54.7019 35.5824 56.2964C34.1684 57.8609 32.0324 58.8988 29.1742 59.4103C32.0925 59.9217 34.2436 60.9296 35.6276 62.4338C37.0416 63.908 37.7486 66.1344 37.7486 69.1128C37.7486 69.865 37.7035 70.6773 37.6132 71.5497L35.7178 90.0523C35.6877 90.2328 35.6727 90.4885 35.6727 90.8195C35.6727 95.1217 39.4785 97.2728 47.0901 97.2728V103.23C41.6447 103.23 37.2071 102.297 33.7773 100.432C30.3777 98.5966 28.6778 95.4677 28.6778 91.0451C28.6778 90.2328 28.7079 89.601 28.7681 89.1497L30.5732 72.001C30.6334 71.5798 30.6635 70.9781 30.6635 70.1959C30.6635 68.4209 30.2573 66.9768 29.445 65.8636C28.6327 64.7504 27.2187 63.908 25.203 63.3364C23.2173 62.7347 20.4645 62.4338 16.9445 62.4338V56.3867C20.4645 56.3867 23.2173 56.1009 25.203 55.5292C27.2187 54.9576 28.6327 54.1152 29.445 53.0021C30.2573 51.8889 30.6635 50.4598 30.6635 48.7149C30.6635 47.9327 30.6334 47.3309 30.5732 46.9097L28.7681 29.6708C28.7079 29.2195 28.6778 28.5877 28.6778 27.7754C28.6778 23.3528 30.3777 20.2239 33.7773 18.3887C37.2071 16.5234 41.6447 15.5908 47.0901 15.5908V21.5477ZM80.9231 15.5908C86.3686 15.5908 90.7911 16.5234 94.1908 18.3887C97.6205 20.2239 99.3354 23.3528 99.3354 27.7754C99.3354 28.5877 99.3053 29.2195 99.2451 29.6708L97.44 46.9097C97.3798 47.5716 97.3497 48.068 97.3497 48.399C97.3497 51.0766 98.4027 53.0773 100.509 54.401C102.615 55.7248 106.135 56.3867 111.069 56.3867V62.4338C106.165 62.4338 102.645 63.1108 100.509 64.4646C98.4027 65.7884 97.3497 67.8041 97.3497 70.5118C97.3497 70.8427 97.3798 71.3391 97.44 72.001L99.2451 89.1497C99.3053 89.601 99.3354 90.2328 99.3354 91.0451C99.3354 95.4677 97.6205 98.5966 94.1908 100.432C90.7911 102.297 86.3686 103.23 80.9231 103.23V97.2728C88.9559 97.2728 92.7467 94.866 92.2954 90.0523L90.4 71.5497C90.3097 70.6773 90.2646 69.865 90.2646 69.1128C90.2646 66.0742 91.0168 63.8328 92.521 62.3887C94.0253 60.9446 96.4622 59.9819 99.8318 59.5005C96.5525 58.959 94.1306 57.8909 92.5662 56.2964C91.0318 54.7019 90.2646 52.4154 90.2646 49.4369C90.2646 48.745 90.3097 48.0229 90.4 47.2708L92.2954 28.7682C92.3255 28.5877 92.3405 28.332 92.3405 28.001C92.3405 25.6844 91.3026 24.0297 89.2267 23.0369C87.1809 22.0441 84.413 21.5477 80.9231 21.5477V15.5908Z" fill="white"/>
</svg>
